<svg xmlns="http://www.w3.org/2000/svg" xmlns:xlink="http://www.w3.org/1999/xlink" width="500" zoomAndPan="magnify" viewBox="0 0 375 374.999991" height="500" preserveAspectRatio="xMidYMid meet" version="1.0"><defs><clipPath id="81bec98a2d"><path d="M 62.488281 8.59375 L 312.238281 8.59375 L 312.238281 366.34375 L 62.488281 366.34375 Z M 62.488281 8.59375 " clip-rule="nonzero"/></clipPath></defs><g clip-path="url(#81bec98a2d)"><path fill="#c85088" d="M 290.183594 333.800781 C 290.175781 336.578125 289.066406 339.054688 287.195312 340.941406 C 285.308594 342.8125 282.828125 343.929688 280.039062 343.929688 L 94.699219 343.929688 C 91.898438 343.925781 89.425781 342.8125 87.546875 340.945312 C 85.683594 339.0625 84.570312 336.585938 84.566406 333.800781 L 84.566406 185.304688 C 84.570312 182.523438 85.675781 180.046875 87.546875 178.164062 C 89.425781 176.289062 91.90625 175.179688 94.699219 175.175781 L 280.039062 175.175781 C 282.820312 175.175781 285.304688 176.289062 287.195312 178.164062 C 289.066406 180.054688 290.175781 182.535156 290.183594 185.304688 Z M 131.917969 50.527344 C 144.003906 38.453125 160.578125 31.015625 179 31.007812 L 195.753906 31.007812 C 214.175781 31.015625 230.75 38.453125 242.835938 50.527344 C 254.898438 62.625 262.328125 79.210938 262.335938 97.652344 L 262.335938 153.078125 L 112.417969 153.078125 L 112.417969 97.652344 C 112.421875 79.210938 119.847656 62.625 131.917969 50.527344 Z M 284.410156 153.417969 L 284.410156 97.652344 C 284.402344 48.636719 244.722656 8.917969 195.753906 8.914062 L 179 8.914062 C 130.03125 8.917969 90.347656 48.636719 90.34375 97.652344 L 90.34375 153.414062 C 74.617188 155.570312 62.527344 168.996094 62.488281 185.304688 L 62.488281 333.800781 C 62.523438 351.589844 76.902344 365.992188 94.699219 366.027344 L 280.039062 366.027344 C 297.816406 365.980469 312.214844 351.613281 312.257812 333.800781 L 312.257812 185.304688 C 312.214844 168.992188 300.113281 155.585938 284.410156 153.417969 " fill-opacity="1" fill-rule="nonzero"/></g><path fill="#c85088" d="M 209.449219 239.296875 C 209.449219 227.09375 199.566406 217.203125 187.375 217.203125 C 175.183594 217.203125 165.300781 227.09375 165.300781 239.296875 C 165.300781 248.292969 170.695312 256.003906 178.402344 259.449219 L 162.652344 301.898438 L 212.09375 301.898438 L 196.347656 259.449219 C 204.054688 256.003906 209.449219 248.292969 209.449219 239.296875 " fill-opacity="1" fill-rule="nonzero"/></svg>